PathFileType	4	(X/Y/Z)	/Users/itak/Documents/Research/Walk-IL/dataset/trc/00371_00011.trc
DataRate	CameraRate	NumFrames	NumMarkers	Units	OrigDataRate	OrigDataStartFrame	OrigNumFrames
100.000000	100.000000	4	55	mm	100.000000	375	501
Frame#	Time	LPSI			L3			STRN			T10			C7			CLAV			RBAK			LBAK			LSHO			LUPA			LAEL			LAOL			LWTS			LWPS			LFRA			LIFD			LHPS			LHTS			RSHO			RUPA			RAEL			RAOL			RWTS			RWPS			RFRA			RIFD			RHTS			RHPS			RBHD			LFHD			RFHD			LBHD			LHIP			RHIP			RASI			LASI			LKNE			LTHI			LANK			LTIP			LTOE			LMT1			LMT5			LHEE			RKNE			RTHI			RANK			RTIP			RTOE			RMT1			RMT5			RHEE			RPSI			*53			*54			
		X1	Y1	Z1	X2	Y2	Z2	X3	Y3	Z3	X4	Y4	Z4	X5	Y5	Z5	X6	Y6	Z6	X7	Y7	Z7	X8	Y8	Z8	X9	Y9	Z9	X10	Y10	Z10	X11	Y11	Z11	X12	Y12	Z12	X13	Y13	Z13	X14	Y14	Z14	X15	Y15	Z15	X16	Y16	Z16	X17	Y17	Z17	X18	Y18	Z18	X19	Y19	Z19	X20	Y20	Z20	X21	Y21	Z21	X22	Y22	Z22	X23	Y23	Z23	X24	Y24	Z24	X25	Y25	Z25	X26	Y26	Z26	X27	Y27	Z27	X28	Y28	Z28	X29	Y29	Z29	X30	Y30	Z30	X31	Y31	Z31	X32	Y32	Z32	X33	Y33	Z33	X34	Y34	Z34	X35	Y35	Z35	X36	Y36	Z36	X37	Y37	Z37	X38	Y38	Z38	X39	Y39	Z39	X40	Y40	Z40	X41	Y41	Z41	X42	Y42	Z42	X43	Y43	Z43	X44	Y44	Z44	X45	Y45	Z45	X46	Y46	Z46	X47	Y47	Z47	X48	Y48	Z48	X49	Y49	Z49	X50	Y50	Z50	X51	Y51	Z51	X52	Y52	Z52	X53	Y53	Z53	X54	Y54	Z54	X55	Y55	Z55	

376	3.75	240.7095031738281	974.243896484375	950.7093505859375	176.72021484375	1031.8935546875	941.4564819335938	153.4420318603516	1235.694213867188	1161.009765625	193.2844085693359	1150.974731445312	928.660888671875	207.7466735839844	1402.064208984375	953.0498657226562	167.5423431396484	1358.32275390625	1110.182861328125	149.6248016357422	1261.200439453125	903.958740234375	308.5190124511719	1363.5693359375	965.07958984375	344.2084350585938	1389.114501953125	1058.65625	416.76171875	1271.449951171875	1066.09765625	439.3898315429688	1074.057495117188	1116.529174804688	399.5820922851562	1045.639526367188	1046.422241210938	368.0436401367188	887.6082153320312	1275.804931640625	426.7299194335938	859.0068359375	1252.724487304688	441.9172058105469	978.4269409179688	1161.23291015625	351.1221618652344	742.366455078125	1347.728637695312	415.3451538085938	794.8193969726562	1278.352905273438	375.4590759277344	820.1424560546875	1320.47705078125	36.49555587768555	1394.786865234375	975.1547241210938	-23.2027416229248	1332.866821289062	951.0823974609375	-73.56117248535156	1071.707763671875	933.2212524414062	19.45240211486816	1058.443725585938	926.8353881835938	-82.40387725830078	834.9826049804688	1034.585693359375	-139.8943481445312	831.5838012695312	983.241943359375	-97.75649261474609	1005.989562988281	949.965576171875	-110.7112426757812	666.9605102539062	1027.632934570312	-111.4510269165039	732.08544921875	1044.396606445312	-148.1142120361328	746.341552734375	986.6050415039062	111.2253570556641	1614.02197265625	975.802490234375	211.055908203125	1630.454345703125	1158.121704101562	111.813720703125	1631.0634765625	1137.445434570312	255.8072509765625	1607.819213867188	978.2666625976562	336.9772644042969	923.7903442382812	1042.782104492188	-8.673457145690918	935.5230712890625	1001.263061523438	23.58445739746094	968.386474609375	1108.473266601562	256.8068542480469	952.201416015625	1162.513671875	285.6856689453125	464.257568359375	1152.062255859375	303.548828125	603.2661743164062	1137.1103515625	258.2516479492188	47.61270904541016	1083.881103515625	281.3698120117188	242.8717041015625	1125.978393554688	188.4764404296875	41.18907165527344	1289.17333984375	149.6467437744141	30.65811347961426	1216.565063476562	263.4322814941406	41.88605499267578	1209.449584960938	191.4252624511719	40.86762237548828	1048.939819335938	-50.71208953857422	490.5301818847656	1152.76611328125	-11.78630924224854	727.0347900390625	1074.976440429688	-52.51401519775391	97.87785339355469	992.2272338867188	-50.46674346923828	371.2009582519531	1132.533569335938	-17.22186470031738	61.96700668334961	1181.450927734375	28.46734809875488	57.38787078857422	1129.373413085938	-79.94382476806641	64.28079223632812	1085.0400390625	-0.5646170973777771	110.3299407958984	947.5733032226562	112.644889831543	976.6966552734375	931.6705322265625	nan	nan	nan	nan	nan	nan	
377	3.76	239.8023223876953	974.7144165039062	954.1989135742188	175.8411407470703	1032.170288085938	945.2447509765625	153.2542114257812	1235.949340820312	1164.39453125	192.5665283203125	1151.146606445312	932.079345703125	207.0948791503906	1402.216552734375	956.2484130859375	167.2187652587891	1358.600219726562	1113.4814453125	148.9480743408203	1261.24072265625	907.4488525390625	307.90625	1363.791625976562	968.0631103515625	343.7684020996094	1389.342529296875	1061.563232421875	416.3701477050781	1271.593872070312	1069.061157226562	439.1135864257812	1074.375732421875	1120.158813476562	399.3002624511719	1045.715698242188	1050.197998046875	366.8808898925781	890.3303833007812	1281.331420898438	425.1780700683594	860.7525024414062	1258.29931640625	441.1840515136719	979.0557861328125	1165.582397460938	347.8821105957031	745.9336547851562	1354.514892578125	413.0227355957031	796.9826049804688	1284.83251953125	373.9850158691406	823.7003784179688	1327.125854492188	35.93394088745117	1394.951049804688	978.6419067382812	-23.79304695129395	1333.074951171875	954.5841064453125	-74.15192413330078	1071.980346679688	936.2379150390625	18.89925956726074	1058.64599609375	930.1431274414062	-83.60822296142578	835.2256469726562	1037.431274414062	-140.8204650878906	831.8733520507812	985.7738037109375	-98.43974304199219	1006.26708984375	952.8015747070312	-112.4922714233398	667.6324462890625	1030.499755859375	-112.9222946166992	732.5401000976562	1047.274658203125	-149.2699890136719	746.7332763671875	989.146728515625	110.682502746582	1614.217895507812	979.0438232421875	210.5084228515625	1630.721923828125	1161.350708007812	111.2440872192383	1631.291748046875	1140.661254882812	255.2451782226562	1608.091796875	981.48779296875	336.1429748535156	923.8551025390625	1046.1796875	-9.357888221740723	936.0134887695312	1005.489318847656	23.15891265869141	968.760498046875	1112.66650390625	256.5753173828125	952.3148803710938	1165.786987304688	285.7561340332031	464.1754760742188	1152.988403320312	303.4833679199219	603.2600708007812	1138.757202148438	258.1643676757812	47.53411483764648	1083.879272460938	281.3226623535156	242.8360443115234	1126.335815429688	188.5047912597656	41.16515731811523	1289.217651367188	149.7171783447266	30.73824119567871	1216.614379882812	263.4678039550781	41.87049102783203	1209.45166015625	191.3640594482422	40.93575668334961	1048.927124023438	-52.00612640380859	489.2558898925781	1152.3056640625	-12.54231357574463	727.5501708984375	1079.194702148438	-58.91912078857422	92.10068511962891	1006.009216308594	-53.22177124023438	370.1452331542969	1135.586547851562	-22.717041015625	63.10183715820312	1196.314819335938	22.54060363769531	55.99633407592773	1144.110473632812	-86.09379577636719	62.45897674560547	1100.20556640625	-7.078752994537354	102.2313613891602	960.38916015625	111.7325210571289	977.3037109375	935.604736328125	nan	nan	nan	nan	nan	nan	
378	3.77	238.7633361816406	975.1592407226562	957.595703125	174.8156127929688	1032.40380859375	948.9712524414062	153.0397796630859	1236.176391601562	1167.673095703125	191.6870422363281	1151.270263671875	935.3799438476562	206.3293762207031	1402.320190429688	959.3118896484375	166.8507537841797	1358.840698242188	1116.665161132812	148.1087493896484	1261.216674804688	910.86572265625	307.1787109375	1363.954467773438	970.8526000976562	343.27490234375	1389.513427734375	1064.253051757812	415.8995056152344	1271.657592773438	1071.763916015625	438.6693725585938	1074.60693359375	1123.494995117188	398.8288269042969	1045.743774414062	1053.686645507812	365.5878601074219	892.6880493164062	1286.319091796875	423.5165710449219	862.2152099609375	1263.329956054688	440.315673828125	979.5784912109375	1169.544677734375	344.4939575195312	749.0781860351562	1360.440063476562	410.636474609375	798.8333740234375	1290.654907226562	372.3869934082031	826.9140625	1333.1611328125	35.2614860534668	1395.103515625	982.0902709960938	-24.51140213012695	1333.266845703125	958.0831298828125	-74.853515625	1072.214965820312	939.3480224609375	18.23969650268555	1058.810668945312	933.5281372070312	-84.80213928222656	835.4942016601562	1040.49755859375	-141.7690734863281	832.1292724609375	988.555908203125	-99.19136047363281	1006.510681152344	955.7667846679688	-113.9149856567383	668.11279296875	1033.543579101562	-114.3677368164062	732.9962158203125	1050.452270507812	-150.4434814453125	747.1163330078125	992.0203247070312	110.0687103271484	1614.392578125	982.1834106445312	209.9461364746094	1630.943115234375	1164.44677734375	110.6540679931641	1631.47314453125	1143.77978515625	254.6058959960938	1608.321166992188	984.566650390625	335.2084350585938	923.8993530273438	1049.483520507812	-10.14501762390137	936.4544067382812	1009.708801269531	22.6768627166748	969.0868530273438	1116.831665039062	256.2994384765625	952.431640625	1168.952758789062	285.8027954101562	464.0912170410156	1153.817993164062	303.3759460449219	603.2811279296875	1140.333129882812	258.0924987792969	47.45208358764648	1083.873168945312	281.3131713867188	242.8271179199219	1126.657836914062	188.5325927734375	41.15056228637695	1289.245483398438	149.7866821289062	30.81327438354492	1216.660522460938	263.5144653320312	41.85204315185547	1209.450439453125	191.3263244628906	41.00922012329102	1048.902709960938	-53.25384902954102	487.9179992675781	1151.510986328125	-13.40090465545654	728.0162353515625	1083.406005859375	-65.19303131103516	86.97791290283203	1019.166442871094	-55.88412094116211	369.2142944335938	1138.314453125	-27.75509452819824	64.37333679199219	1210.2099609375	16.96670532226562	54.96806335449219	1157.87451171875	-91.89733123779297	61.05082321166992	1114.593383789062	-13.57214641571045	94.89691162109375	972.6520385742188	110.6824493408203	977.9028930664062	939.498291015625	nan	nan	nan	nan	nan	nan	
379	3.78	237.5982513427734	975.5733032226562	960.8943481445312	173.6478576660156	1032.591186523438	952.6170654296875	152.7956848144531	1236.382690429688	1170.840209960938	190.6401977539062	1151.345458984375	938.56396484375	205.4471282958984	1402.37451171875	962.2387084960938	166.4339447021484	1359.045288085938	1119.732666015625	147.0987396240234	1261.135009765625	914.2078247070312	306.3331298828125	1364.05322265625	973.4490356445312	342.7260437011719	1389.627075195312	1066.723999023438	415.3417358398438	1271.651489257812	1074.210205078125	438.0574035644531	1074.755126953125	1126.54638671875	398.1705932617188	1045.722534179688	1056.889770507812	364.1545715332031	894.6611938476562	1290.769165039062	421.7655944824219	863.4136352539062	1267.84619140625	439.3169860839844	980.0037841796875	1173.140014648438	341.0250244140625	751.7797241210938	1365.549438476562	408.2149353027344	800.3551025390625	1295.841064453125	370.6307373046875	829.678466796875	1338.519653320312	34.47203063964844	1395.246215820312	985.5020141601562	-25.36275672912598	1333.444946289062	961.5835571289062	-75.66285705566406	1072.419799804688	942.5557250976562	17.46448135375977	1058.942626953125	936.9913940429688	-85.97744750976562	835.7788696289062	1043.780151367188	-142.7437286376953	832.3516845703125	991.5924682617188	-100.0206756591797	1006.726196289062	958.8733520507812	-114.9898681640625	668.4036865234375	1036.7470703125	-115.7581253051758	733.4369506835938	1053.899047851562	-151.6169281005859	747.4696044921875	995.2113647460938	109.3806457519531	1614.54931640625	985.2227783203125	209.3659515380859	1631.120239257812	1167.4150390625	110.0484390258789	1631.611328125	1146.809204101562	253.8874664306641	1608.506713867188	987.5035400390625	334.1745300292969	923.9158935546875	1052.703369140625	-11.02785682678223	936.8428955078125	1013.894836425781	22.13069343566895	969.3722534179688	1120.951538085938	255.9652557373047	952.5527954101562	1172.016845703125	285.8193054199219	463.998046875	1154.571044921875	303.2261657714844	603.3333129882812	1141.832397460938	258.0397033691406	47.37333679199219	1083.861083984375	281.3458251953125	242.8547668457031	1126.947998046875	188.5615844726562	41.14385986328125	1289.258911132812	149.8493804931641	30.87430000305176	1216.698120117188	263.5704040527344	41.82999038696289	1209.445556640625	191.3140411376953	41.08757019042969	1048.872924804688	-54.48281097412109	486.5919494628906	1150.508422851562	-14.35501194000244	728.429931640625	1087.583862304688	-71.25776672363281	82.55323028564453	1031.534301757812	-58.40874862670898	368.4406433105469	1140.781860351562	-32.33720779418945	65.68059539794922	1223.032836914062	11.7766809463501	54.23769760131836	1170.559692382812	-97.32335662841797	60.03103637695312	1128.058715820312	-19.9626407623291	88.40935516357422	984.2188720703125	109.505989074707	978.4920654296875	943.3328247070312	nan	nan	nan	nan	nan	nan	
